<?xml version="1.0" standalone="no"?><!DOCTYPE svg PUBLIC "-//W3C//DTD SVG 1.1//EN" "http://www.w3.org/Graphics/SVG/1.1/DTD/svg11.dtd"><svg t="1522466393783" class="icon" style="" viewBox="0 0 1024 1024" version="1.1" xmlns="http://www.w3.org/2000/svg" p-id="1581" xmlns:xlink="http://www.w3.org/1999/xlink" width="64" height="64"><defs><style type="text/css"></style></defs><path d="M534.346667 523.925333l324.544 0 0 399.146667L165.109333 923.072l0-399.146667L681.056 523.925333l-96.170667-99.946667L152.885333 423.978667C104.458667 423.978667 65.162667 463.253333 65.162667 511.722667l0 423.552c0 48.448 39.296 87.722667 87.722667 87.722667l718.208 0c48.448 0 87.722667-39.274667 87.722667-87.722667L958.816 511.722667c0-48.469333-39.274667-87.744-87.722667-87.744L434.016 423.978667 534.346667 523.925333z" p-id="1582"></path><path d="M786.528 499.072l-99.989333 0L686.538667 274.538667c0-96.277333-78.293333-174.570667-174.570667-174.570667-96.256 0-174.549333 78.293333-174.549333 174.570667l0 49.856L237.472 324.394667l0-49.856C237.472 123.157333 360.629333 0 511.989333 0c151.381333 0 274.538667 123.157333 274.538667 274.538667L786.528 499.072z" p-id="1583"></path></svg>