<?xml version="1.0" standalone="no"?><!DOCTYPE svg PUBLIC "-//W3C//DTD SVG 1.1//EN" "http://www.w3.org/Graphics/SVG/1.1/DTD/svg11.dtd"><svg t="1522466612444" class="icon" style="" viewBox="0 0 1024 1024" version="1.1" xmlns="http://www.w3.org/2000/svg" p-id="2002" xmlns:xlink="http://www.w3.org/1999/xlink" width="64" height="64"><defs><style type="text/css"></style></defs><path d="M477.866667 588.8c64 0 123.733333-25.6 166.4-68.266667 46.933333-42.666667 68.266667-102.4 68.266666-166.4s-25.6-123.733333-68.266666-166.4c-42.666667-46.933333-102.4-68.266667-166.4-68.266666s-123.733333 25.6-166.4 68.266666c-46.933333 38.4-72.533333 98.133333-72.533334 162.133334s25.6 123.733333 68.266667 166.4c46.933333 46.933333 106.666667 72.533333 170.666667 72.533333z m0-418.133333c98.133333 0 179.2 81.066667 179.2 179.2 0 98.133333-81.066667 179.2-179.2 179.2-98.133333 0-179.2-81.066667-179.2-179.2C298.666667 251.733333 379.733333 170.666667 477.866667 170.666667zM315.733333 580.266667c-46.933333 21.333333-93.866667 51.2-132.266666 89.6-38.4 38.4-68.266667 81.066667-89.6 132.266666-12.8 34.133333-21.333333 64-29.866667 98.133334-4.266667 17.066667 12.8 34.133333 29.866667 34.133333 12.8 0 25.6-8.533333 29.866666-25.6 4.266667-29.866667 12.8-59.733333 25.6-85.333333 17.066667-42.666667 42.666667-81.066667 76.8-110.933334 34.133333-34.133333 72.533333-59.733333 115.2-76.8 17.066667-8.533333 21.333333-25.6 17.066667-38.4-8.533333-17.066667-25.6-21.333333-42.666667-17.066666zM938.666667 482.133333c-12.8-12.8-34.133333-8.533333-46.933334 4.266667l-307.2 379.733333L409.6 725.333333c-12.8-12.8-34.133333-8.533333-46.933333 4.266667-12.8 12.8-8.533333 34.133333 4.266666 46.933333l200.533334 162.133334c4.266667 4.266667 12.8 8.533333 21.333333 8.533333s17.066667-4.266667 25.6-12.8l328.533333-401.066667c12.8-21.333333 12.8-38.4-4.266666-51.2z" fill="" p-id="2003"></path></svg>