<?xml version="1.0" standalone="no"?><!DOCTYPE svg PUBLIC "-//W3C//DTD SVG 1.1//EN" "http://www.w3.org/Graphics/SVG/1.1/DTD/svg11.dtd"><svg t="1524539137657" class="icon" style="" viewBox="0 0 1024 1024" version="1.1" xmlns="http://www.w3.org/2000/svg" p-id="3193" xmlns:xlink="http://www.w3.org/1999/xlink" width="200" height="200"><defs><style type="text/css"></style></defs><path d="M954.181818 907.636364l-46.545455 0L907.636364 465.454545c0-25.693091-20.852364-46.545455-46.545455-46.545455l-232.727273 0 0 46.545455L837.818182 465.454545c12.846545 0 23.272727 10.426182 23.272727 23.272727L861.090909 884.363636c0 12.846545-10.426182 23.272727-23.272727 23.272727l-279.272727 0 0-791.272727c0-25.693091-20.852364-46.545455-46.545455-46.545455L162.909091 69.818182c-25.693091 0-46.545455 20.852364-46.545455 46.545455l0 791.272727-46.545455 0C56.971636 907.636364 46.545455 918.062545 46.545455 930.909091c0 12.846545 10.426182 23.272727 23.272727 23.272727l884.363636 0c12.846545 0 23.272727-10.426182 23.272727-23.272727C977.454545 918.062545 967.028364 907.636364 954.181818 907.636364zM512 907.636364 162.909091 907.636364 162.909091 139.636364c0-12.846545 10.426182-23.272727 23.272727-23.272727l302.545455 0C501.573818 116.363636 512 126.789818 512 139.636364L512 907.636364zM232.727273 418.909091l69.818182 0L302.545455 349.090909 232.727273 349.090909 232.727273 418.909091zM232.727273 279.272727l69.818182 0L302.545455 209.454545 232.727273 209.454545 232.727273 279.272727zM372.363636 418.909091l69.818182 0L442.181818 349.090909 372.363636 349.090909 372.363636 418.909091zM372.363636 279.272727l69.818182 0L442.181818 209.454545 372.363636 209.454545 372.363636 279.272727z" p-id="3194" fill="#ffffff"></path></svg>