<?xml version="1.0" standalone="no"?><!DOCTYPE svg PUBLIC "-//W3C//DTD SVG 1.1//EN" "http://www.w3.org/Graphics/SVG/1.1/DTD/svg11.dtd"><svg t="1524539446570" class="icon" style="" viewBox="0 0 1024 1024" version="1.1" xmlns="http://www.w3.org/2000/svg" p-id="1925" xmlns:xlink="http://www.w3.org/1999/xlink" width="200" height="200"><defs><style type="text/css"></style></defs><path d="M512 625.777778c-159.288889 0-284.444444-125.155556-284.444444-284.444445s125.155556-284.444444 284.444444-284.444444 284.444444 125.155556 284.444444 284.444444-125.155556 284.444444-284.444444 284.444445z m0-56.888889c125.155556 0 227.555556-102.4 227.555556-227.555556s-102.4-227.555556-227.555556-227.555555-227.555556 102.4-227.555556 227.555555 102.4 227.555556 227.555556 227.555556z" fill="#ffffff" p-id="1926"></path><path d="M56.888889 1024c0-250.311111 204.8-455.111111 455.111111-455.111111s455.111111 204.8 455.111111 455.111111h-56.888889c0-221.866667-176.355556-398.222222-398.222222-398.222222s-398.222222 176.355556-398.222222 398.222222H56.888889z" fill="#ffffff" p-id="1927"></path></svg>